<svg id="openai" xmlns="http://www.w3.org/2000/svg" viewBox="0 0 512 512"><defs><style>.cls-1{fill:none;}</style></defs><rect class="cls-1" width="512" height="512"/><path d="M422.5,220.7a96.8,96.8,0,0,0-8.3-79.5,98,98,0,0,0-105.5-47,98.2,98.2,0,0,0-166.4,35.2,96.9,96.9,0,0,0-64.7,46.9,97.9,97.9,0,0,0,12,115,96.9,96.9,0,0,0,8.3,79.5,98,98,0,0,0,105.5,47,98.1,98.1,0,0,0,166.5-35.6,96.9,96.9,0,0,0,64.7-46.9,98.1,98.1,0,0,0-12.1-114.6ZM276.4,424.9a72.8,72.8,0,0,1-46.6-16.8l2.3-1.3,77.4-44.7a13.2,13.2,0,0,0,6.4-11.1V241.9l32.7,19a1,1,0,0,1,.6.8v90.4A72.9,72.9,0,0,1,276.4,424.9ZM119.9,358.1a72.2,72.2,0,0,1-8.6-48.8l2.3,1.4L191,355.3a12.6,12.6,0,0,0,12.7,0l94.6-54.5v37.8a1.4,1.4,0,0,1-.5,1l-78.4,45.2a73,73,0,0,1-99.5-26.7ZM99.6,189.5a72.5,72.5,0,0,1,38.3-31.9v91.9a12.4,12.4,0,0,0,6.3,11l94.1,54.3-32.7,18.9a1.1,1.1,0,0,1-1.1,0l-78.3-45.1a73,73,0,0,1-26.6-99.5ZM368.4,252l-94.5-54.9,32.6-18.8a1.3,1.3,0,0,1,1.2,0l78.2,45.2a72.7,72.7,0,0,1-11,131.2V262.8a12.8,12.8,0,0,0-6.5-10.8Zm32.5-49-2.3-1.4-77.3-45a12.6,12.6,0,0,0-12.7,0L214,211.1V173.4a1.2,1.2,0,0,1,.5-1l78.2-45.2a72.9,72.9,0,0,1,108.2,75.5ZM196.2,270l-32.7-18.9a1.3,1.3,0,0,1-.7-.9V160a72.8,72.8,0,0,1,119.5-55.9l-2.3,1.3-77.4,44.7a12.8,12.8,0,0,0-6.3,11ZM214,231.7l42.1-24.3,42.2,24.3v48.5l-42,24.3L214,280.2Z"/></svg>